<?xml version="1.0" encoding="utf-8"?>
<!-- Generator: Adobe Illustrator 19.2.1, SVG Export Plug-In . SVG Version: 6.00 Build 0)  -->
<svg version="1.1"
	 id="cloverSymbol" inkscape:version="0.47 r22583" sodipodi:docname="Love_Clover_symbol.svg" xmlns:cc="http://creativecommons.org/ns#" xmlns:dc="http://purl.org/dc/elements/1.1/" xmlns:inkscape="http://www.inkscape.org/namespaces/inkscape" xmlns:rdf="http://www.w3.org/1999/02/22-rdf-syntax-ns#" xmlns:sodipodi="http://sodipodi.sourceforge.net/DTD/sodipodi-0.dtd" xmlns:svg="http://www.w3.org/2000/svg"
	 xmlns="http://www.w3.org/2000/svg" xmlns:xlink="http://www.w3.org/1999/xlink" x="0px" y="0px" viewBox="0 0 756.4 756.4"
	 style="enable-background:new 0 0 756.4 756.4;" xml:space="preserve">
<style type="text/css">
	.st0{fill:#339900;}
</style>
<defs>
	
	
		<inkscape:perspective  id="perspective10" inkscape:persp3d-origin="372.04724 : 350.78739 : 1" inkscape:vp_x="0 : 526.18109 : 1" inkscape:vp_y="0 : 1000 : 0" inkscape:vp_z="744.09448 : 526.18109 : 1" sodipodi:type="inkscape:persp3d">
		</inkscape:perspective>
</defs>
<sodipodi:namedview  bordercolor="#666666" borderopacity="1.0" id="base" inkscape:current-layer="layer1" inkscape:cx="201.81689" inkscape:cy="418.63076" inkscape:document-units="px" inkscape:pageopacity="0.0" inkscape:pageshadow="2" inkscape:window-height="744" inkscape:window-maximized="1" inkscape:window-width="1280" inkscape:window-x="-4" inkscape:window-y="-4" inkscape:zoom="0.47417135" pagecolor="#ffffff" showgrid="false">
	</sodipodi:namedview>
<g id="cloverFourLeaves" transform="translate(81.788246,-188.44201)" inkscape:groupmode="layer" inkscape:label="Layer 1">
	<g id="cloverLeaveTop" transform="translate(4.2180348,-244.97944)">
		
			<rect id="cloverLeaveTopRect" x="177.1" y="520.9" transform="matrix(0.7071 -0.7071 0.7071 0.7071 -363.8104 392.1226)" class="st0" width="228.6" height="228.6"/>
		
			<path id="cloverLeaveTopCircle2" sodipodi:cx="294.28571" sodipodi:cy="400.93362" sodipodi:rx="117.14286" sodipodi:ry="117.14286" sodipodi:type="arc" class="st0" d="
			M329.5,552.1c0,64.7-52.4,117.1-117.1,117.1S95.2,616.8,95.2,552.1s52.4-117.1,117.1-117.1S329.5,487.4,329.5,552.1z"/>
		
			<path id="cloverLeaveTopCircle1" sodipodi:cx="294.28571" sodipodi:cy="400.93362" sodipodi:rx="117.14286" sodipodi:ry="117.14286" sodipodi:type="arc" class="st0" d="
			M489.2,550.6c0,64.7-52.4,117.1-117.1,117.1s-117.1-52.4-117.1-117.1S307.3,433.4,372,433.4S489.2,485.9,489.2,550.6z"/>
	</g>
	<g id="cloverLeaveBottom" transform="matrix(1,0,0,-1,4.2180347,1378.2333)">
		
			<rect id="cloverLeaveBottomRect" x="177.1" y="749.5" transform="matrix(0.7071 -0.7071 0.7071 0.7071 -363.8104 392.1226)" class="st0" width="228.6" height="-228.6"/>
		
			<path id="cloverLeaveBottomCircle2" sodipodi:cx="294.28571" sodipodi:cy="400.93362" sodipodi:rx="117.14286" sodipodi:ry="117.14286" sodipodi:type="arc" class="st0" d="
			M329.5,552.1c0,64.7-52.4,117.1-117.1,117.1S95.2,616.8,95.2,552.1s52.4-117.1,117.1-117.1S329.5,487.4,329.5,552.1z"/>
		
			<path id="cloverLeaveBottomCircle1" sodipodi:cx="294.28571" sodipodi:cy="400.93362" sodipodi:rx="117.14286" sodipodi:ry="117.14286" sodipodi:type="arc" class="st0" d="
			M489.2,550.6c0,64.7-52.4,117.1-117.1,117.1s-117.1-52.4-117.1-117.1S307.3,433.4,372,433.4S489.2,485.9,489.2,550.6z"/>
	</g>
	<g id="cloverLeaveRight" transform="matrix(0,1,-1,0,1108.003,274.44829)">
		
			<rect id="cloverLeaveRightRect" x="177.1" y="520.9" transform="matrix(0.7071 0.7071 -0.7071 0.7071 534.5237 -20.0203)" class="st0" width="228.6" height="228.6"/>
		
			<path id="cloverLeaveRightCircle2" sodipodi:cx="294.28571" sodipodi:cy="400.93362" sodipodi:rx="117.14286" sodipodi:ry="117.14286" sodipodi:type="arc" class="st0" d="
			M329.5,552.1c0,64.7-52.4,117.1-117.1,117.1S95.2,616.8,95.2,552.1s52.4-117.1,117.1-117.1S329.5,487.4,329.5,552.1z"/>
		
			<path id="cloverLeaveRightCircle1" sodipodi:cx="294.28571" sodipodi:cy="400.93362" sodipodi:rx="117.14286" sodipodi:ry="117.14286" sodipodi:type="arc" class="st0" d="
			M489.2,550.6c0,64.7-52.4,117.1-117.1,117.1s-117.1-52.4-117.1-117.1S307.3,433.4,372,433.4S489.2,485.9,489.2,550.6z"/>
	</g>
	<g id="cloverLeaveLeft" transform="matrix(0,1,1,0,-515.2097,274.44829)">
		
			<rect id="cloverLeaveLeftRect" x="177.1" y="749.5" transform="matrix(0.7071 0.7071 -0.7071 0.7071 534.5237 -20.0203)" class="st0" width="228.6" height="-228.6"/>
		
			<path id="cloverLeaveLeftCircle2" sodipodi:cx="294.28571" sodipodi:cy="400.93362" sodipodi:rx="117.14286" sodipodi:ry="117.14286" sodipodi:type="arc" class="st0" d="
			M329.5,552.1c0,64.7-52.4,117.1-117.1,117.1S95.2,616.8,95.2,552.1s52.4-117.1,117.1-117.1S329.5,487.4,329.5,552.1z"/>
		
			<path id="cloverLeaveLeftCircle1" sodipodi:cx="294.28571" sodipodi:cy="400.93362" sodipodi:rx="117.14286" sodipodi:ry="117.14286" sodipodi:type="arc" class="st0" d="
			M489.2,550.6c0,64.7-52.4,117.1-117.1,117.1s-117.1-52.4-117.1-117.1S307.3,433.4,372,433.4S489.2,485.9,489.2,550.6z"/>
	</g>
</g>
</svg>
